<svg xmlns="http://www.w3.org/2000/svg" enable-background="new 0 0 512 512" viewBox="0 0 512 512"><g display="none"><path fill="#C4C2C2" stroke="#000" stroke-linecap="round" stroke-linejoin="round" stroke-miterlimit="10" stroke-width="16" d="
		M476.1,167.7l-99.5-80.5c-13.7-11.1-33.9-9-45,4.7l0,0c-7.2,8.9-8.8,20.5-5.4,30.5c2.1,6.2,0.9,13.1-3.2,18.2l-66.7,82.5
		c-9.2,11.4-7.5,28.2,3.9,37.4l70.6,57.1c11.4,9.2,28.2,7.5,37.4-3.9l66.7-82.5c4.1-5.1,10.6-7.7,17.2-6.9
		c10.6,1.3,21.5-2.7,28.7-11.6l0,0C492,198.9,489.9,178.8,476.1,167.7z"/><ellipse cx="256" cy="208" fill="#C4C2C2" stroke="#000" stroke-linecap="round" stroke-linejoin="round" stroke-miterlimit="10" stroke-width="16" rx="56" ry="128"/><path fill="#C4C2C2" stroke="#000" stroke-linecap="round" stroke-linejoin="round" stroke-miterlimit="10" stroke-width="16" d="
		M208,277.6l-88,24l-60-220c-6.6-24.3,7.7-49.4,32-56h0c24.3-6.6,49.4,7.7,56,32L208,277.6z"/><path fill="#C4C2C2" stroke="#000" stroke-linecap="round" stroke-linejoin="round" stroke-miterlimit="10" stroke-width="16" d="M404.4 488H107.6C92 488 79 476 77.7 460.5L64 296h384l-13.7 164.5C433 476 420 488 404.4 488zM464 296H48c-8.8 0-16-7.2-16-16l0 0c0-8.8 7.2-16 16-16h416c8.8 0 16 7.2 16 16l0 0C480 288.8 472.8 296 464 296z"/><rect width="32" height="96" x="120" y="328" fill="#C4C2C2" stroke="#000" stroke-linecap="round" stroke-linejoin="round" stroke-miterlimit="10" stroke-width="16"/><rect width="32" height="96" x="200" y="328" fill="#C4C2C2" stroke="#000" stroke-linecap="round" stroke-linejoin="round" stroke-miterlimit="10" stroke-width="16"/><rect width="32" height="96" x="280" y="328" fill="#C4C2C2" stroke="#000" stroke-linecap="round" stroke-linejoin="round" stroke-miterlimit="10" stroke-width="16"/><rect width="32" height="96" x="360" y="328" fill="#C4C2C2" stroke="#000" stroke-linecap="round" stroke-linejoin="round" stroke-miterlimit="10" stroke-width="16"/><path fill="#C4C2C2" stroke="#000" stroke-linecap="round" stroke-linejoin="round" stroke-miterlimit="10" stroke-width="16" d="
		M241.4,488H46.6C34.1,488,24,477.9,24,465.4v0c0-40.5,32.9-73.4,73.4-73.4h93.2c40.5,0,73.4,32.9,73.4,73.4v0
		C264,477.9,253.9,488,241.4,488z"/><path fill="#C4C2C2" stroke="#000" stroke-linecap="round" stroke-linejoin="round" stroke-miterlimit="10" stroke-width="16" d="M151.2 440L151.2 440c5.4 0 10.4-3.1 12.8-7.9l20-40.1h-32l-13.6 27.3C133.6 428.8 140.5 440 151.2 440zM215.2 440L215.2 440c5.4 0 10.4-3.1 12.8-7.9l11-21.9c-7.2-6.3-15.6-11.2-24.8-14.3l-11.7 23.4C197.6 428.8 204.5 440 215.2 440zM87.2 440L87.2 440c5.4 0 10.4-3.1 12.8-7.9l20-40.1H97.4c-3.3 0-6.6.2-9.7.7l-13.3 26.6C69.6 428.8 76.5 440 87.2 440zM96 88L96 88c0 8.8 7.2 16 16 16h48.6l-8.7-32H112C103.2 72 96 79.2 96 88zM112 152L112 152c0 8.8 7.2 16 16 16h50.1l-8.7-32H128C119.2 136 112 143.2 112 152zM144 200c-8.8 0-16 7.2-16 16l0 0c0 8.8 7.2 16 16 16h51.6l-8.7-32H144z"/><line x1="240" x2="272" y1="144" y2="144" fill="#C4C2C2" stroke="#000" stroke-linecap="round" stroke-linejoin="round" stroke-miterlimit="10" stroke-width="16"/><line x1="232" x2="280" y1="184" y2="184" fill="#C4C2C2" stroke="#000" stroke-linecap="round" stroke-linejoin="round" stroke-miterlimit="10" stroke-width="16"/><line x1="232" x2="280" y1="224" y2="224" fill="#C4C2C2" stroke="#000" stroke-linecap="round" stroke-linejoin="round" stroke-miterlimit="10" stroke-width="16"/><rect width="0" height="0" x="360" y="152" fill="#C4C2C2" stroke="#000" stroke-linecap="round" stroke-linejoin="round" stroke-miterlimit="10" stroke-width="16"/><rect width="0" height="0" x="360" y="184" fill="#C4C2C2" stroke="#000" stroke-linecap="round" stroke-linejoin="round" stroke-miterlimit="10" stroke-width="16"/><rect width="0" height="0" x="384" y="208" fill="#C4C2C2" stroke="#000" stroke-linecap="round" stroke-linejoin="round" stroke-miterlimit="10" stroke-width="16"/><rect width="0" height="0" x="408" y="224" fill="#C4C2C2" stroke="#000" stroke-linecap="round" stroke-linejoin="round" stroke-miterlimit="10" stroke-width="16"/><rect width="0" height="0" x="352" y="216" fill="#C4C2C2" stroke="#000" stroke-linecap="round" stroke-linejoin="round" stroke-miterlimit="10" stroke-width="16"/><rect width="0" height="0" x="368" y="240" fill="#C4C2C2" stroke="#000" stroke-linecap="round" stroke-linejoin="round" stroke-miterlimit="10" stroke-width="16"/><rect width="0" height="0" x="392" y="176" fill="#C4C2C2" stroke="#000" stroke-linecap="round" stroke-linejoin="round" stroke-miterlimit="10" stroke-width="16"/><rect width="0" height="0" x="424" y="192" fill="#C4C2C2" stroke="#000" stroke-linecap="round" stroke-linejoin="round" stroke-miterlimit="10" stroke-width="16"/><rect width="0" height="0" x="456" y="192" fill="#C4C2C2" stroke="#000" stroke-linecap="round" stroke-linejoin="round" stroke-miterlimit="10" stroke-width="16"/><rect width="0" height="0" x="392" y="144" fill="#C4C2C2" stroke="#000" stroke-linecap="round" stroke-linejoin="round" stroke-miterlimit="10" stroke-width="16"/><rect width="0" height="0" x="360" y="120" fill="#C4C2C2" stroke="#000" stroke-linecap="round" stroke-linejoin="round" stroke-miterlimit="10" stroke-width="16"/><rect width="0" height="0" x="424" y="160" fill="#C4C2C2" stroke="#000" stroke-linecap="round" stroke-linejoin="round" stroke-miterlimit="10" stroke-width="16"/></g><path d="M464,256h-38.8l16-19.7c2.4-3,6.2-4.5,10-4c13.8,1.7,27.2-3.8,35.9-14.5c5.8-7.1,8.9-16,8.9-25.1
			c0-12.1-5.4-23.5-14.8-31.1l-99.5-80.5c-8.3-6.7-18.7-9.8-29.4-8.7c-10.6,1.1-20.2,6.3-26.9,14.6c-5.8,7.1-8.9,16-8.9,25.2
			c0,4.4,0.7,8.8,2.2,13c1.3,3.7,0.6,7.6-1.9,10.6l-4.7,5.8C301.1,98.2,280.3,72,256,72c-18.3,0-35,15-46.9,42.3
			c-9.2,20.9-14.9,47.5-16.6,76.2L159.9,70.9l-0.3-1c0,0,0,0,0,0l-3.9-14.4C149.4,32.2,128.1,16,104,16c-4.8,0-9.5,0.6-14.1,1.9
			C76.1,21.7,64.6,30.6,57.5,43c-7.1,12.4-8.9,26.9-5.2,40.7l47,172.3H48c-13.2,0-24,10.8-24,24s10.8,24,24,24h8.6l7.3,87.2
			C35.7,404,16,432.5,16,465.4c0,16.9,13.7,30.6,30.6,30.6h61h133.8h163c19.6,0,36.2-15.3,37.9-34.8L455.4,304h8.6
			c13.2,0,24-10.8,24-24S477.2,256,464,256z M329.2,145.7c5.9-7.3,7.6-17,4.6-25.9c-0.9-2.5-1.3-5.1-1.3-7.8
			c0-5.6,1.8-10.8,5.3-15.1c4-5,9.8-8.1,16.1-8.8c6.4-0.7,12.6,1.2,17.6,5.2l99.5,80.5c5.7,4.6,8.9,11.4,8.9,18.7
			c0,5.5-1.8,10.8-5.3,15.1c-5.2,6.5-13.3,9.7-21.6,8.7c-9.3-1.1-18.4,2.6-24.4,9.8L404.6,256H316c2.6-15.3,4-31.3,4-48
			c0-16-1.3-31.6-3.7-46.3L329.2,145.7z M223.7,120.7C232.8,99.9,244.6,88,256,88c18.2,0,36.2,29.9,43.9,72.7c0,0.1,0,0.1,0,0.2
			c2.7,14.9,4.1,30.8,4.1,47.2c0,16.7-1.4,32.9-4.2,48h-87.6c-2.8-15.1-4.2-31.3-4.2-48C208,174.9,213.6,143.9,223.7,120.7z
			 M185.1,224H144c-4.4,0-8-3.6-8-8s3.6-8,8-8h36.7L185.1,224z M167.6,160H128c-4.4,0-8-3.6-8-8s3.6-8,8-8h35.3L167.6,160z
			 M150.2,96H112c-4.4,0-8-3.6-8-8s3.6-8,8-8h33.8L150.2,96z M67.7,79.5c-2.6-9.7-1.4-19.8,3.6-28.6c5-8.7,13.1-15,22.8-17.6
			c3.2-0.9,6.6-1.3,9.9-1.3c16.9,0,31.8,11.4,36.3,27.7l1.2,4.3H112c-13.2,0-24,10.8-24,24s10.8,24,24,24h42.5l4.4,16H128
			c-13.2,0-24,10.8-24,24s10.8,24,24,24h44l4.4,16H144c-13.2,0-24,10.8-24,24s10.8,24,24,24h45.5l4.4,16h-78L67.7,79.5z M107.6,480
			h-61c-8,0-14.6-6.5-14.6-14.6c0-24.4,13.5-45.7,33.3-57l0.8,9.7c-2.3,6.4-1.6,13.4,2,19.3c4.1,6.6,11.2,10.6,19,10.6
			c8.5,0,16.2-4.7,20-12.3l17.8-35.7h14.1l-7.9,15.7c-3.5,7-3.1,15.1,1,21.7c4.1,6.6,11.2,10.6,19,10.6c8.5,0,16.2-4.7,20-12.3
			l17.8-35.7h1.6c4.1,0,8,0.4,11.9,1.1l-7.3,14.6c-3.5,7-3.1,15.1,1,21.7c4.1,6.6,11.2,10.6,19,10.6c8.5,0,16.2-4.7,20-12.3
			l5.9-11.8c9.3,11.3,15,25.8,15,41.6c0,8-6.5,14.6-14.6,14.6H107.6z M93.2,400.1c0.5,0,0.9-0.1,1.4-0.1c0.9,0,1.8-0.1,2.8-0.1h9.6
			l-14.3,28.5c-1.1,2.2-3.2,3.5-5.6,3.5c-3.2,0-4.8-2.1-5.4-3c-0.6-0.9-1.7-3.3-0.3-6.1c0-0.1,0.1-0.2,0.1-0.3l11.2-22.5
			C93,400.2,93.1,400.2,93.2,400.1z M145.5,422.9l11.4-22.9h14.1l-14.3,28.5c-1.1,2.2-3.2,3.5-5.6,3.5c-3.2,0-4.8-2.1-5.4-3
			C145.2,428.1,144.1,425.7,145.5,422.9z M144,384h-16v-48h16V384z M209.5,422.9l8.4-16.9c0.2,0.1,0.4,0.2,0.6,0.3
			c0.3,0.2,0.7,0.3,1,0.5c0.7,0.3,1.3,0.7,2,1c0.2,0.1,0.4,0.2,0.7,0.4c0.7,0.4,1.5,0.8,2.2,1.2c0.2,0.1,0.3,0.2,0.4,0.3
			c0.8,0.5,1.5,0.9,2.2,1.4c0.1,0.1,0.3,0.2,0.4,0.3c0.5,0.3,1,0.7,1.5,1l-8.1,16.1c-1.1,2.2-3.2,3.5-5.6,3.5c-3.2,0-4.8-2.1-5.4-3
			C209.2,428.1,208.1,425.7,209.5,422.9z M224,391.2c-0.3-0.1-0.6-0.2-0.9-0.4c-0.6-0.3-1.2-0.5-1.9-0.8c-0.5-0.2-1.1-0.4-1.6-0.6
			c-0.8-0.3-1.6-0.6-2.4-0.9c-0.2-0.1-0.4-0.2-0.7-0.2c-0.1,0-0.2-0.1-0.3-0.1c-2.7-0.9-5.5-1.7-8.3-2.3V336h16V391.2z M426.3,459.8
			c-0.9,11.3-10.6,20.2-21.9,20.2H268.3c2.4-4.3,3.7-9.3,3.7-14.6c0-24.2-10.7-46-27.5-60.9c-0.1-0.1-0.2-0.2-0.3-0.3
			c-0.5-0.5-1.1-0.9-1.6-1.3c-0.1-0.1-0.3-0.2-0.4-0.3c-0.7-0.6-1.4-1.2-2.2-1.7V328c0-4.4-3.6-8-8-8h-32c-4.4,0-8,3.6-8,8v56
			c-0.5,0-0.9,0-1.4,0H184h-24v-56c0-4.4-3.6-8-8-8h-32c-4.4,0-8,3.6-8,8v56H97.4c-1.1,0-2.3,0-3.5,0.1c-0.5,0-1,0-1.5,0.1
			c-0.6,0-1.1,0.1-1.7,0.1c-1.2,0.1-2.5,0.2-3.7,0.4c-0.2,0-0.3,0-0.5,0.1c0,0,0,0-0.1,0c-2.4,0.3-4.7,0.7-7,1.3l-6.8-82h366.6
			L426.3,459.8z M464,288h-16H64H48c-4.4,0-8-3.6-8-8s3.6-8,8-8h61.7c0,0,0,0,0,0c0,0,0,0,0,0h95.9c0,0,0.1,0,0.1,0h100.6
			c0,0,0,0,0,0c0,0,0,0,0,0H464c4.4,0,8,3.6,8,8S468.4,288,464,288z"/><path d="M280 432h32c4.4 0 8-3.6 8-8v-96c0-4.4-3.6-8-8-8h-32c-4.4 0-8 3.6-8 8v96C272 428.4 275.6 432 280 432zM288 336h16v80h-16V336zM360 432h32c4.4 0 8-3.6 8-8v-96c0-4.4-3.6-8-8-8h-32c-4.4 0-8 3.6-8 8v96C352 428.4 355.6 432 360 432zM368 336h16v80h-16V336zM240 152h32c4.4 0 8-3.6 8-8s-3.6-8-8-8h-32c-4.4 0-8 3.6-8 8S235.6 152 240 152zM232 192h48c4.4 0 8-3.6 8-8s-3.6-8-8-8h-48c-4.4 0-8 3.6-8 8S227.6 192 232 192zM232 232h48c4.4 0 8-3.6 8-8s-3.6-8-8-8h-48c-4.4 0-8 3.6-8 8S227.6 232 232 232zM360 160c4.4 0 8-3.6 8-8s-3.6-8-8-8h0c-4.4 0-8 3.6-8 8S355.6 160 360 160zM360 192c4.4 0 8-3.6 8-8s-3.6-8-8-8h0c-4.4 0-8 3.6-8 8S355.6 192 360 192zM384 216c4.4 0 8-3.6 8-8s-3.6-8-8-8h0c-4.4 0-8 3.6-8 8S379.6 216 384 216zM408 232c4.4 0 8-3.6 8-8s-3.6-8-8-8h0c-4.4 0-8 3.6-8 8S403.6 232 408 232zM352 224c4.4 0 8-3.6 8-8s-3.6-8-8-8h0c-4.4 0-8 3.6-8 8S347.6 224 352 224zM368 232c-4.4 0-8 3.6-8 8s3.6 8 8 8c4.4 0 8-3.6 8-8S372.4 232 368 232L368 232zM392 184c4.4 0 8-3.6 8-8s-3.6-8-8-8h0c-4.4 0-8 3.6-8 8S387.6 184 392 184zM424 200c4.4 0 8-3.6 8-8s-3.6-8-8-8h0c-4.4 0-8 3.6-8 8S419.6 200 424 200zM456 200c4.4 0 8-3.6 8-8s-3.6-8-8-8h0c-4.4 0-8 3.6-8 8S451.6 200 456 200zM392 152c4.4 0 8-3.6 8-8s-3.6-8-8-8h0c-4.4 0-8 3.6-8 8S387.6 152 392 152zM360 128c4.4 0 8-3.6 8-8s-3.6-8-8-8h0c-4.4 0-8 3.6-8 8S355.6 128 360 128zM424 168c4.4 0 8-3.6 8-8s-3.6-8-8-8h0c-4.4 0-8 3.6-8 8S419.6 168 424 168z"/><g display="none"><linearGradient id="a" x1="22.419" x2="413.464" y1="484.481" y2="93.436" gradientUnits="userSpaceOnUse"><stop offset="0" stop-color="#12c2e9"/><stop offset=".533" stop-color="#c471ed"/><stop offset="1" stop-color="#f64f59"/></linearGradient><path fill="url(#a)" d="M464,256h-38.8l16-19.7c2.4-3,6.2-4.5,10-4c13.8,1.7,27.2-3.8,35.9-14.5
		c5.8-7.1,8.9-16,8.9-25.1c0-12.1-5.4-23.5-14.8-31.1l-99.5-80.5c-8.3-6.7-18.7-9.8-29.4-8.7c-10.6,1.1-20.2,6.3-26.9,14.6
		c-5.8,7.1-8.9,16-8.9,25.2c0,4.4,0.7,8.8,2.2,13c1.3,3.7,0.6,7.6-1.9,10.6l-4.7,5.8C301.1,98.2,280.3,72,256,72
		c-18.3,0-35,15-46.9,42.3c-9.2,20.9-14.9,47.5-16.6,76.2L159.9,70.9l-0.3-1c0,0,0,0,0,0l-3.9-14.4C149.4,32.2,128.1,16,104,16
		c-4.8,0-9.5,0.6-14.1,1.9C76.1,21.7,64.6,30.6,57.5,43c-7.1,12.4-8.9,26.9-5.2,40.7l47,172.3H48c-13.2,0-24,10.8-24,24
		s10.8,24,24,24h8.6l7.3,87.2C35.7,404,16,432.5,16,465.4c0,16.9,13.7,30.6,30.6,30.6h61h133.8h163c19.6,0,36.2-15.3,37.9-34.8
		L455.4,304h8.6c13.2,0,24-10.8,24-24S477.2,256,464,256z M316.3,161.7l12.9-16c5.9-7.3,7.6-17,4.6-25.9c-0.9-2.5-1.3-5.1-1.3-7.8
		c0-5.6,1.8-10.8,5.3-15.1c4-5,9.8-8.1,16.1-8.8c6.4-0.7,12.6,1.2,17.6,5.2l99.5,80.5c5.7,4.6,8.9,11.4,8.9,18.7
		c0,5.5-1.8,10.8-5.3,15.1c-5.2,6.5-13.3,9.7-21.6,8.7c-9.3-1.1-18.4,2.6-24.4,9.8L404.6,256H316c2.6-15.3,4-31.3,4-48
		C320,192,318.7,176.4,316.3,161.7z M223.7,120.7C232.8,99.9,244.6,88,256,88c18.2,0,36.2,29.9,43.9,72.7c0,0.1,0,0.1,0,0.2
		c2.7,14.9,4.1,30.8,4.1,47.2c0,16.7-1.4,32.9-4.2,48h-87.6c-2.8-15.1-4.2-31.3-4.2-48C208,174.9,213.6,143.9,223.7,120.7z
		 M185.1,224H144c-4.4,0-8-3.6-8-8s3.6-8,8-8h36.7L185.1,224z M163.3,144l4.4,16H128c-4.4,0-8-3.6-8-8s3.6-8,8-8H163.3z M150.2,96
		H112c-4.4,0-8-3.6-8-8s3.6-8,8-8h33.8L150.2,96z M67.7,79.5c-2.6-9.7-1.4-19.8,3.6-28.6c5-8.7,13.1-15,22.8-17.6
		c3.2-0.9,6.6-1.3,9.9-1.3c16.9,0,31.8,11.4,36.3,27.7l1.2,4.3H112c-13.2,0-24,10.8-24,24s10.8,24,24,24h42.5l4.4,16H128
		c-13.2,0-24,10.8-24,24s10.8,24,24,24h44l4.4,16H144c-13.2,0-24,10.8-24,24s10.8,24,24,24h45.5l4.4,16h-78L67.7,79.5z M241.4,480
		H107.6h-61c-8,0-14.6-6.5-14.6-14.6c0-24.4,13.5-45.7,33.3-57l0.8,9.7c-2.3,6.4-1.6,13.4,2,19.3c4.1,6.6,11.2,10.6,19,10.6
		c8.5,0,16.2-4.7,20-12.3l17.8-35.7h14.1l-7.9,15.7c-3.5,7-3.1,15.1,1,21.7c4.1,6.6,11.2,10.6,19,10.6c8.5,0,16.2-4.7,20-12.3
		l17.8-35.7h1.6c4.1,0,8,0.4,11.9,1.1l-7.3,14.6c-3.5,7-3.1,15.1,1,21.7c4.1,6.6,11.2,10.6,19,10.6c8.5,0,16.2-4.7,20-12.3l5.9-11.8
		c9.3,11.3,15,25.8,15,41.6C256,473.5,249.5,480,241.4,480z M81.5,422.9c0-0.1,0.1-0.2,0.1-0.3l11.2-22.5c0.1,0,0.3,0,0.4,0
		c0.5,0,0.9-0.1,1.4-0.1c0.9,0,1.8-0.1,2.8-0.1h9.6l-14.3,28.5c-1.1,2.2-3.2,3.5-5.6,3.5c-3.2,0-4.8-2.1-5.4-3
		C81.2,428.1,80.1,425.7,81.5,422.9z M128,384v-48h16v48H128z M145.5,422.9l11.4-22.9h14.1l-14.3,28.5c-1.1,2.2-3.2,3.5-5.6,3.5
		c-3.2,0-4.8-2.1-5.4-3C145.2,428.1,144.1,425.7,145.5,422.9z M224,391.2c-0.3-0.1-0.6-0.2-0.9-0.4c-0.6-0.3-1.2-0.5-1.9-0.8
		c-0.5-0.2-1.1-0.4-1.6-0.6c-0.8-0.3-1.6-0.6-2.4-0.9c-0.2-0.1-0.4-0.2-0.7-0.2c-0.1,0-0.2-0.1-0.3-0.1c-2.7-0.9-5.5-1.7-8.3-2.3
		V336h16V391.2z M224.3,409.4c0.2,0.1,0.3,0.2,0.4,0.3c0.8,0.5,1.5,0.9,2.2,1.4c0.1,0.1,0.3,0.2,0.4,0.3c0.5,0.3,1,0.7,1.5,1
		l-8.1,16.1c-1.1,2.2-3.2,3.5-5.6,3.5c-3.2,0-4.8-2.1-5.4-3c-0.6-0.9-1.7-3.3-0.3-6.1l8.4-16.9c0.2,0.1,0.4,0.2,0.6,0.3
		c0.3,0.2,0.7,0.3,1,0.5c0.7,0.3,1.3,0.7,2,1c0.2,0.1,0.4,0.2,0.7,0.4C222.9,408.5,223.6,409,224.3,409.4z M426.3,459.8
		c-0.9,11.3-10.6,20.2-21.9,20.2H268.3c2.4-4.3,3.7-9.3,3.7-14.6c0-24.2-10.7-46-27.5-60.9c-0.1-0.1-0.2-0.2-0.3-0.3
		c-0.5-0.5-1.1-0.9-1.6-1.3c-0.1-0.1-0.3-0.2-0.4-0.3c-0.7-0.6-1.4-1.2-2.2-1.7V328c0-4.4-3.6-8-8-8h-32c-4.4,0-8,3.6-8,8v56
		c-0.5,0-0.9,0-1.4,0H184h-24v-56c0-4.4-3.6-8-8-8h-32c-4.4,0-8,3.6-8,8v56H97.4c-1.1,0-2.3,0-3.5,0.1c-0.5,0-1,0-1.5,0.1
		c-0.6,0-1.1,0.1-1.7,0.1c-1.2,0.1-2.5,0.2-3.7,0.4c-0.2,0-0.3,0-0.5,0.1c0,0,0,0-0.1,0c-2.4,0.3-4.7,0.7-7,1.3l-6.8-82h366.6
		L426.3,459.8z M464,288h-16H64H48c-4.4,0-8-3.6-8-8s3.6-8,8-8h61.7c0,0,0,0,0,0c0,0,0,0,0,0h95.9c0,0,0.1,0,0.1,0h100.6
		c0,0,0,0,0,0c0,0,0,0,0,0H464c4.4,0,8,3.6,8,8S468.4,288,464,288z M280,432h32c4.4,0,8-3.6,8-8v-96c0-4.4-3.6-8-8-8h-32
		c-4.4,0-8,3.6-8,8v96C272,428.4,275.6,432,280,432z M288,336h16v80h-16V336z M360,432h32c4.4,0,8-3.6,8-8v-96c0-4.4-3.6-8-8-8h-32
		c-4.4,0-8,3.6-8,8v96C352,428.4,355.6,432,360,432z M368,336h16v80h-16V336z M232,144c0-4.4,3.6-8,8-8h32c4.4,0,8,3.6,8,8
		s-3.6,8-8,8h-32C235.6,152,232,148.4,232,144z M224,184c0-4.4,3.6-8,8-8h48c4.4,0,8,3.6,8,8s-3.6,8-8,8h-48
		C227.6,192,224,188.4,224,184z M224,224c0-4.4,3.6-8,8-8h48c4.4,0,8,3.6,8,8s-3.6,8-8,8h-48C227.6,232,224,228.4,224,224z M352,152
		c0-4.4,3.6-8,8-8h0c4.4,0,8,3.6,8,8s-3.6,8-8,8C355.6,160,352,156.4,352,152z M352,184c0-4.4,3.6-8,8-8h0c4.4,0,8,3.6,8,8
		s-3.6,8-8,8C355.6,192,352,188.4,352,184z M376,208c0-4.4,3.6-8,8-8h0c4.4,0,8,3.6,8,8s-3.6,8-8,8C379.6,216,376,212.4,376,208z
		 M400,224c0-4.4,3.6-8,8-8h0c4.4,0,8,3.6,8,8s-3.6,8-8,8C403.6,232,400,228.4,400,224z M344,216c0-4.4,3.6-8,8-8h0c4.4,0,8,3.6,8,8
		s-3.6,8-8,8C347.6,224,344,220.4,344,216z M368,232c4.4,0,8,3.6,8,8s-3.6,8-8,8c-4.4,0-8-3.6-8-8S363.6,232,368,232L368,232z
		 M384,176c0-4.4,3.6-8,8-8h0c4.4,0,8,3.6,8,8s-3.6,8-8,8C387.6,184,384,180.4,384,176z M416,192c0-4.4,3.6-8,8-8h0c4.4,0,8,3.6,8,8
		s-3.6,8-8,8C419.6,200,416,196.4,416,192z M448,192c0-4.4,3.6-8,8-8h0c4.4,0,8,3.6,8,8s-3.6,8-8,8C451.6,200,448,196.4,448,192z
		 M384,144c0-4.4,3.6-8,8-8h0c4.4,0,8,3.6,8,8s-3.6,8-8,8C387.6,152,384,148.4,384,144z M352,120c0-4.4,3.6-8,8-8h0c4.4,0,8,3.6,8,8
		s-3.6,8-8,8C355.6,128,352,124.4,352,120z M416,160c0-4.4,3.6-8,8-8h0c4.4,0,8,3.6,8,8s-3.6,8-8,8C419.6,168,416,164.4,416,160z"/></g><g display="none"><path d="M221.5 407.8c-.6-.3-1.3-.7-2-1-.3-.2-.7-.3-1-.5-.2-.1-.4-.2-.6-.3l-8.4 16.9c-1.4 2.8-.3 5.2.3 6.1.6.9 2.2 3 5.4 3 2.4 0 4.6-1.3 5.6-3.5l8.1-16.1c-.5-.4-1-.7-1.5-1-.1-.1-.3-.2-.4-.3-.7-.5-1.5-1-2.2-1.4-.1-.1-.3-.2-.4-.3-.7-.4-1.4-.8-2.2-1.2C221.9 408 221.7 407.9 221.5 407.8zM208 385.9c2.8.6 5.6 1.4 8.3 2.3.1 0 .2.1.3.1.2.1.4.2.7.2.8.3 1.6.6 2.4.9.5.2 1.1.4 1.6.6.6.3 1.2.5 1.9.8.3.1.6.2.9.4V336h-16V385.9zM151.2 432c2.4 0 4.6-1.3 5.6-3.5l14.3-28.5h-14.1l-11.4 22.9c-1.4 2.8-.3 5.2.3 6.1C146.3 429.9 148 432 151.2 432z"/><rect width="16" height="48" x="128" y="336"/><path d="M464 272H306.4c0 0 0 0 0 0 0 0 0 0 0 0H205.7c0 0-.1 0-.1 0h-95.9c0 0 0 0 0 0 0 0 0 0 0 0H48c-4.4 0-8 3.6-8 8s3.6 8 8 8h16 384 16c4.4 0 8-3.6 8-8S468.4 272 464 272zM87.2 432c2.4 0 4.6-1.3 5.6-3.5l14.3-28.5h-9.6c-.9 0-1.8 0-2.8.1-.5 0-.9 0-1.4.1-.1 0-.3 0-.4 0l-11.2 22.5c0 .1-.1.2-.1.3-1.4 2.8-.3 5.2.3 6.1C82.3 429.9 84 432 87.2 432zM471.1 173.9l-99.5-80.5c-5-4-11.2-5.9-17.6-5.2-6.4.7-12.1 3.8-16.1 8.8-3.5 4.3-5.3 9.5-5.3 15.1 0 2.7.4 5.3 1.3 7.8 3.1 8.9 1.4 18.6-4.6 25.9l-12.9 16c2.4 14.8 3.7 30.4 3.7 46.3 0 16.7-1.3 32.7-4 48h88.6l24.1-29.8c5.9-7.3 15-11 24.4-9.8 8.3 1 16.3-2.3 21.6-8.7 3.5-4.3 5.3-9.5 5.3-15.1C480 185.3 476.8 178.5 471.1 173.9zM392 136L392 136c4.4 0 8 3.6 8 8s-3.6 8-8 8c-4.4 0-8-3.6-8-8S387.6 136 392 136zM360 112L360 112c4.4 0 8 3.6 8 8s-3.6 8-8 8c-4.4 0-8-3.6-8-8S355.6 112 360 112zM360 144L360 144c4.4 0 8 3.6 8 8s-3.6 8-8 8c-4.4 0-8-3.6-8-8S355.6 144 360 144zM360 176L360 176c4.4 0 8 3.6 8 8s-3.6 8-8 8c-4.4 0-8-3.6-8-8S355.6 176 360 176zM352 224c-4.4 0-8-3.6-8-8s3.6-8 8-8h0c4.4 0 8 3.6 8 8S356.4 224 352 224zM368 248c-4.4 0-8-3.6-8-8s3.6-8 8-8h0c4.4 0 8 3.6 8 8S372.4 248 368 248zM384 216c-4.4 0-8-3.6-8-8s3.6-8 8-8h0c4.4 0 8 3.6 8 8S388.4 216 384 216zM392 184c-4.4 0-8-3.6-8-8s3.6-8 8-8h0c4.4 0 8 3.6 8 8S396.4 184 392 184zM408 232c-4.4 0-8-3.6-8-8s3.6-8 8-8h0c4.4 0 8 3.6 8 8S412.4 232 408 232zM424 200c-4.4 0-8-3.6-8-8s3.6-8 8-8h0c4.4 0 8 3.6 8 8S428.4 200 424 200zM424 168c-4.4 0-8-3.6-8-8s3.6-8 8-8h0c4.4 0 8 3.6 8 8S428.4 168 424 168zM456 200c-4.4 0-8-3.6-8-8s3.6-8 8-8h0c4.4 0 8 3.6 8 8S460.4 200 456 200zM79.5 386c2.3-.5 4.6-.9 7-1.3 0 0 0 0 .1 0 .2 0 .3 0 .5-.1 1.2-.2 2.5-.3 3.7-.4.6 0 1.1-.1 1.7-.1.5 0 1-.1 1.5-.1 1.2-.1 2.3-.1 3.5-.1H112v-56c0-4.4 3.6-8 8-8h32c4.4 0 8 3.6 8 8v56h24 6.6c.5 0 .9 0 1.4 0v-56c0-4.4 3.6-8 8-8h32c4.4 0 8 3.6 8 8v72.8c.7.6 1.5 1.1 2.2 1.7.1.1.3.2.4.3.5.4 1.1.9 1.6 1.3.1.1.2.2.3.3 16.9 14.9 27.5 36.7 27.5 60.9 0 5.3-1.3 10.2-3.7 14.6h136.1c11.4 0 21-8.9 21.9-20.2l13-155.8H72.7L79.5 386zM352 328c0-4.4 3.6-8 8-8h32c4.4 0 8 3.6 8 8v96c0 4.4-3.6 8-8 8h-32c-4.4 0-8-3.6-8-8V328zM272 328c0-4.4 3.6-8 8-8h32c4.4 0 8 3.6 8 8v96c0 4.4-3.6 8-8 8h-32c-4.4 0-8-3.6-8-8V328z"/><rect width="16" height="80" x="288" y="336"/><path d="M299.8 256c2.8-15.1 4.2-31.3 4.2-48 0-16.4-1.4-32.2-4.1-47.2 0-.1 0-.1 0-.2C292.2 117.9 274.2 88 256 88c-11.4 0-23.2 11.9-32.3 32.7C213.6 143.9 208 174.9 208 208c0 16.7 1.4 32.9 4.2 48H299.8zM240 136h32c4.4 0 8 3.6 8 8s-3.6 8-8 8h-32c-4.4 0-8-3.6-8-8S235.6 136 240 136zM232 176h48c4.4 0 8 3.6 8 8s-3.6 8-8 8h-48c-4.4 0-8-3.6-8-8S227.6 176 232 176zM232 216h48c4.4 0 8 3.6 8 8s-3.6 8-8 8h-48c-4.4 0-8-3.6-8-8S227.6 216 232 216zM136 216c0 4.4 3.6 8 8 8h41.1l-4.4-16H144C139.6 208 136 211.6 136 216z"/><rect width="16" height="80" x="368" y="336"/><path d="M235.1 435.7c-3.8 7.6-11.4 12.3-20 12.3-7.8 0-14.9-4-19-10.6-4.1-6.6-4.5-14.7-1-21.7l7.3-14.6c-3.9-.7-7.8-1.1-11.9-1.1h-1.6l-17.8 35.7c-3.8 7.6-11.4 12.3-20 12.3-7.8 0-14.9-4-19-10.6-4.1-6.6-4.5-14.7-1-21.7l7.9-15.7h-14.1l-17.8 35.7c-3.8 7.6-11.4 12.3-20 12.3-7.8 0-14.9-4-19-10.6-3.6-5.9-4.3-12.9-2-19.3l-.8-9.7C45.5 419.7 32 441 32 465.4c0 8 6.5 14.6 14.6 14.6h61 133.8c8 0 14.6-6.5 14.6-14.6 0-15.8-5.6-30.3-15-41.6L235.1 435.7zM115.9 256h78l-4.4-16H144c-13.2 0-24-10.8-24-24s10.8-24 24-24h32.4l-4.4-16h-44c-13.2 0-24-10.8-24-24s10.8-24 24-24h30.9l-4.4-16H112c-13.2 0-24-10.8-24-24s10.8-24 24-24h29.4l-1.2-4.3C135.8 43.4 120.9 32 104 32c-3.3 0-6.7.4-9.9 1.3C84.4 36 76.3 42.2 71.3 51c-5 8.7-6.3 18.9-3.6 28.6L115.9 256z"/><path d="M120 152c0 4.4 3.6 8 8 8h39.6l-4.4-16H128C123.6 144 120 147.6 120 152zM104 88c0 4.4 3.6 8 8 8h38.2l-4.4-16H112C107.6 80 104 83.6 104 88z"/></g><g display="none"><path fill="#BD8152" d="M476.1,167.7l-99.5-80.5c-13.7-11.1-33.9-9-45,4.7l0,0c-7.2,8.9-8.8,20.5-5.4,30.5
		c2.1,6.2,0.9,13.1-3.2,18.2l-66.7,82.5c-9.2,11.4-7.5,28.2,3.9,37.4l70.6,57.1c11.4,9.2,28.2,7.5,37.4-3.9l66.7-82.5
		c4.1-5.1,10.6-7.7,17.2-6.9c10.6,1.3,21.5-2.7,28.7-11.6l0,0C492,198.9,489.9,178.8,476.1,167.7z"/><ellipse cx="256" cy="208" fill="#8A5E3C" rx="56" ry="128"/><path fill="#BD8152" d="M208,277.6l-88,24l-60-220c-6.6-24.3,7.7-49.4,32-56h0c24.3-6.6,49.4,7.7,56,32L208,277.6
		z"/><path fill="#A1BDC1" d="M404.4,488H107.6C92,488,79,476,77.7,460.5L64,296h384l-13.7,164.5
		C433,476,420,488,404.4,488z"/><path fill="#32352E" d="M464,296H48c-8.8,0-16-7.2-16-16l0,0c0-8.8,7.2-16,16-16h416c8.8,0,16,7.2,16,16l0,0
		C480,288.8,472.8,296,464,296z"/><rect width="32" height="96" x="120" y="328" fill="#32352E"/><rect width="32" height="96" x="200" y="328" fill="#32352E"/><rect width="32" height="96" x="280" y="328" fill="#32352E"/><rect width="32" height="96" x="360" y="328" fill="#32352E"/><path fill="#BD8152" d="M241.4,488H46.6C34.1,488,24,477.9,24,465.4v0c0-40.5,32.9-73.4,73.4-73.4h93.2
		c40.5,0,73.4,32.9,73.4,73.4v0C264,477.9,253.9,488,241.4,488z"/><path fill="#432716" d="M151.2 440L151.2 440c5.4 0 10.4-3.1 12.8-7.9l20-40.1h-32l-13.6 27.3C133.6 428.8 140.5 440 151.2 440zM215.2 440L215.2 440c5.4 0 10.4-3.1 12.8-7.9l11-21.9c-7.2-6.3-15.6-11.2-24.8-14.3l-11.7 23.4C197.6 428.8 204.5 440 215.2 440zM87.2 440L87.2 440c5.4 0 10.4-3.1 12.8-7.9l20-40.1H97.4c-3.3 0-6.6.2-9.7.7l-13.3 26.6C69.6 428.8 76.5 440 87.2 440z"/><path fill="#8A5E3C" d="M96 88L96 88c0 8.8 7.2 16 16 16h48.6l-8.7-32H112C103.2 72 96 79.2 96 88zM112 152L112 152c0 8.8 7.2 16 16 16h50.1l-8.7-32H128C119.2 136 112 143.2 112 152zM144 200c-8.8 0-16 7.2-16 16l0 0c0 8.8 7.2 16 16 16h51.6l-8.7-32H144z"/><path fill="#432716" d="M272 152h-32c-4.4 0-8-3.6-8-8s3.6-8 8-8h32c4.4 0 8 3.6 8 8S276.4 152 272 152zM280 192h-48c-4.4 0-8-3.6-8-8s3.6-8 8-8h48c4.4 0 8 3.6 8 8S284.4 192 280 192zM280 232h-48c-4.4 0-8-3.6-8-8s3.6-8 8-8h48c4.4 0 8 3.6 8 8S284.4 232 280 232zM360 160c-4.4 0-8-3.6-8-8s3.6-8 8-8h0c4.4 0 8 3.6 8 8S364.4 160 360 160zM360 192c-4.4 0-8-3.6-8-8s3.6-8 8-8h0c4.4 0 8 3.6 8 8S364.4 192 360 192zM384 216c-4.4 0-8-3.6-8-8s3.6-8 8-8h0c4.4 0 8 3.6 8 8S388.4 216 384 216zM408 232c-4.4 0-8-3.6-8-8s3.6-8 8-8h0c4.4 0 8 3.6 8 8S412.4 232 408 232zM352 224c-4.4 0-8-3.6-8-8s3.6-8 8-8h0c4.4 0 8 3.6 8 8S356.4 224 352 224zM368 248c-4.4 0-8-3.6-8-8s3.6-8 8-8h0c4.4 0 8 3.6 8 8S372.4 248 368 248zM392 184c-4.4 0-8-3.6-8-8s3.6-8 8-8h0c4.4 0 8 3.6 8 8S396.4 184 392 184zM424 200c-4.4 0-8-3.6-8-8s3.6-8 8-8h0c4.4 0 8 3.6 8 8S428.4 200 424 200zM456 200c-4.4 0-8-3.6-8-8s3.6-8 8-8h0c4.4 0 8 3.6 8 8S460.4 200 456 200zM392 152c-4.4 0-8-3.6-8-8s3.6-8 8-8h0c4.4 0 8 3.6 8 8S396.4 152 392 152zM360 128c-4.4 0-8-3.6-8-8s3.6-8 8-8h0c4.4 0 8 3.6 8 8S364.4 128 360 128zM424 168c-4.4 0-8-3.6-8-8s3.6-8 8-8h0c4.4 0 8 3.6 8 8S428.4 168 424 168z"/></g><g display="none"><path fill="#BD8152" d="M476.1,167.7l-99.5-80.5c-13.7-11.1-33.9-9-45,4.7l0,0c-7.2,8.9-8.8,20.5-5.4,30.5
		c2.1,6.2,0.9,13.1-3.2,18.2l-66.7,82.5c-9.2,11.4-7.5,28.2,3.9,37.4l70.6,57.1c11.4,9.2,28.2,7.5,37.4-3.9l66.7-82.5
		c4.1-5.1,10.6-7.7,17.2-6.9c10.6,1.3,21.5-2.7,28.7-11.6l0,0C492,198.9,489.9,178.8,476.1,167.7z"/><ellipse cx="256" cy="208" fill="#8A5E3C" rx="56" ry="128"/><path fill="#BD8152" d="M208,277.6l-88,24l-60-220c-6.6-24.3,7.7-49.4,32-56h0c24.3-6.6,49.4,7.7,56,32L208,277.6
		z"/><path fill="#A1BDC1" d="M404.4,488H107.6C92,488,79,476,77.7,460.5L64,296h384l-13.7,164.5
		C433,476,420,488,404.4,488z"/><path fill="#32352E" d="M464,296H48c-8.8,0-16-7.2-16-16l0,0c0-8.8,7.2-16,16-16h416c8.8,0,16,7.2,16,16l0,0
		C480,288.8,472.8,296,464,296z"/><rect width="32" height="96" x="120" y="328" fill="#32352E"/><rect width="32" height="96" x="200" y="328" fill="#32352E"/><rect width="32" height="96" x="280" y="328" fill="#32352E"/><rect width="32" height="96" x="360" y="328" fill="#32352E"/><path fill="#BD8152" d="M241.4,488H46.6C34.1,488,24,477.9,24,465.4v0c0-40.5,32.9-73.4,73.4-73.4h93.2
		c40.5,0,73.4,32.9,73.4,73.4v0C264,477.9,253.9,488,241.4,488z"/><path fill="#432716" d="M151.2 440L151.2 440c5.4 0 10.4-3.1 12.8-7.9l20-40.1h-32l-13.6 27.3C133.6 428.8 140.5 440 151.2 440zM215.2 440L215.2 440c5.4 0 10.4-3.1 12.8-7.9l11-21.9c-7.2-6.3-15.6-11.2-24.8-14.3l-11.7 23.4C197.6 428.8 204.5 440 215.2 440zM87.2 440L87.2 440c5.4 0 10.4-3.1 12.8-7.9l20-40.1H97.4c-3.3 0-6.6.2-9.7.7l-13.3 26.6C69.6 428.8 76.5 440 87.2 440z"/><path fill="#8A5E3C" d="M96 88L96 88c0 8.8 7.2 16 16 16h48.6l-8.7-32H112C103.2 72 96 79.2 96 88zM112 152L112 152c0 8.8 7.2 16 16 16h50.1l-8.7-32H128C119.2 136 112 143.2 112 152zM144 200c-8.8 0-16 7.2-16 16l0 0c0 8.8 7.2 16 16 16h51.6l-8.7-32H144z"/><path fill="#432716" d="M272 152h-32c-4.4 0-8-3.6-8-8s3.6-8 8-8h32c4.4 0 8 3.6 8 8S276.4 152 272 152zM280 192h-48c-4.4 0-8-3.6-8-8s3.6-8 8-8h48c4.4 0 8 3.6 8 8S284.4 192 280 192zM280 232h-48c-4.4 0-8-3.6-8-8s3.6-8 8-8h48c4.4 0 8 3.6 8 8S284.4 232 280 232zM360 160c-4.4 0-8-3.6-8-8s3.6-8 8-8h0c4.4 0 8 3.6 8 8S364.4 160 360 160zM360 192c-4.4 0-8-3.6-8-8s3.6-8 8-8h0c4.4 0 8 3.6 8 8S364.4 192 360 192zM384 216c-4.4 0-8-3.6-8-8s3.6-8 8-8h0c4.4 0 8 3.6 8 8S388.4 216 384 216zM408 232c-4.4 0-8-3.6-8-8s3.6-8 8-8h0c4.4 0 8 3.6 8 8S412.4 232 408 232zM352 224c-4.4 0-8-3.6-8-8s3.6-8 8-8h0c4.4 0 8 3.6 8 8S356.4 224 352 224zM368 248c-4.4 0-8-3.6-8-8s3.6-8 8-8h0c4.4 0 8 3.6 8 8S372.4 248 368 248zM392 184c-4.4 0-8-3.6-8-8s3.6-8 8-8h0c4.4 0 8 3.6 8 8S396.4 184 392 184zM424 200c-4.4 0-8-3.6-8-8s3.6-8 8-8h0c4.4 0 8 3.6 8 8S428.4 200 424 200zM456 200c-4.4 0-8-3.6-8-8s3.6-8 8-8h0c4.4 0 8 3.6 8 8S460.4 200 456 200zM392 152c-4.4 0-8-3.6-8-8s3.6-8 8-8h0c4.4 0 8 3.6 8 8S396.4 152 392 152zM360 128c-4.4 0-8-3.6-8-8s3.6-8 8-8h0c4.4 0 8 3.6 8 8S364.4 128 360 128zM424 168c-4.4 0-8-3.6-8-8s3.6-8 8-8h0c4.4 0 8 3.6 8 8S428.4 168 424 168z"/><path d="M464,256h-38.8l16-19.7c2.4-3,6.2-4.5,10-4c13.8,1.7,27.2-3.8,35.9-14.5c5.8-7.1,8.9-16,8.9-25.1
			c0-12.1-5.4-23.5-14.8-31.1l-99.5-80.5c-8.3-6.7-18.7-9.8-29.4-8.7c-10.6,1.1-20.2,6.3-26.9,14.6c-5.8,7.1-8.9,16-8.9,25.2
			c0,4.4,0.7,8.8,2.2,13c1.3,3.7,0.6,7.6-1.9,10.6l-4.7,5.8C301.1,98.2,280.3,72,256,72c-18.3,0-35,15-46.9,42.3
			c-9.2,20.9-14.9,47.5-16.6,76.2L159.9,70.9l-0.3-1c0,0,0,0,0,0l-3.9-14.4C149.4,32.2,128.1,16,104,16c-4.8,0-9.5,0.6-14.1,1.9
			C76.1,21.7,64.6,30.6,57.5,43c-7.1,12.4-8.9,26.9-5.2,40.7l47,172.3H48c-13.2,0-24,10.8-24,24s10.8,24,24,24h8.6l7.3,87.2
			C35.7,404,16,432.5,16,465.4c0,16.9,13.7,30.6,30.6,30.6h61h133.8h163c19.6,0,36.2-15.3,37.9-34.8L455.4,304h8.6
			c13.2,0,24-10.8,24-24S477.2,256,464,256z M329.2,145.7c5.9-7.3,7.6-17,4.6-25.9c-0.9-2.5-1.3-5.1-1.3-7.8
			c0-5.6,1.8-10.8,5.3-15.1c4-5,9.8-8.1,16.1-8.8c6.4-0.7,12.6,1.2,17.6,5.2l99.5,80.5c5.7,4.6,8.9,11.4,8.9,18.7
			c0,5.5-1.8,10.8-5.3,15.1c-5.2,6.5-13.3,9.7-21.6,8.7c-9.3-1.1-18.4,2.6-24.4,9.8L404.6,256H316c2.6-15.3,4-31.3,4-48
			c0-16-1.3-31.6-3.7-46.3L329.2,145.7z M223.7,120.7C232.8,99.9,244.6,88,256,88c18.2,0,36.2,29.9,43.9,72.7c0,0.1,0,0.1,0,0.2
			c2.7,14.9,4.1,30.8,4.1,47.2c0,16.7-1.4,32.9-4.2,48h-87.6c-2.8-15.1-4.2-31.3-4.2-48C208,174.9,213.6,143.9,223.7,120.7z
			 M185.1,224H144c-4.4,0-8-3.6-8-8s3.6-8,8-8h36.7L185.1,224z M167.6,160H128c-4.4,0-8-3.6-8-8s3.6-8,8-8h35.3L167.6,160z
			 M150.2,96H112c-4.4,0-8-3.6-8-8s3.6-8,8-8h33.8L150.2,96z M67.7,79.5c-2.6-9.7-1.4-19.8,3.6-28.6c5-8.7,13.1-15,22.8-17.6
			c3.2-0.9,6.6-1.3,9.9-1.3c16.9,0,31.8,11.4,36.3,27.7l1.2,4.3H112c-13.2,0-24,10.8-24,24s10.8,24,24,24h42.5l4.4,16H128
			c-13.2,0-24,10.8-24,24s10.8,24,24,24h44l4.4,16H144c-13.2,0-24,10.8-24,24s10.8,24,24,24h45.5l4.4,16h-78L67.7,79.5z M107.6,480
			h-61c-8,0-14.6-6.5-14.6-14.6c0-24.4,13.5-45.7,33.3-57l0.8,9.7c-2.3,6.4-1.6,13.4,2,19.3c4.1,6.6,11.2,10.6,19,10.6
			c8.5,0,16.2-4.7,20-12.3l17.8-35.7h14.1l-7.9,15.7c-3.5,7-3.1,15.1,1,21.7c4.1,6.6,11.2,10.6,19,10.6c8.5,0,16.2-4.7,20-12.3
			l17.8-35.7h1.6c4.1,0,8,0.4,11.9,1.1l-7.3,14.6c-3.5,7-3.1,15.1,1,21.7c4.1,6.6,11.2,10.6,19,10.6c8.5,0,16.2-4.7,20-12.3
			l5.9-11.8c9.3,11.3,15,25.8,15,41.6c0,8-6.5,14.6-14.6,14.6H107.6z M93.2,400.1c0.5,0,0.9-0.1,1.4-0.1c0.9,0,1.8-0.1,2.8-0.1h9.6
			l-14.3,28.5c-1.1,2.2-3.2,3.5-5.6,3.5c-3.2,0-4.8-2.1-5.4-3c-0.6-0.9-1.7-3.3-0.3-6.1c0-0.1,0.1-0.2,0.1-0.3l11.2-22.5
			C93,400.2,93.1,400.2,93.2,400.1z M145.5,422.9l11.4-22.9h14.1l-14.3,28.5c-1.1,2.2-3.2,3.5-5.6,3.5c-3.2,0-4.8-2.1-5.4-3
			C145.2,428.1,144.1,425.7,145.5,422.9z M144,384h-16v-48h16V384z M209.5,422.9l8.4-16.9c0.2,0.1,0.4,0.2,0.6,0.3
			c0.3,0.2,0.7,0.3,1,0.5c0.7,0.3,1.3,0.7,2,1c0.2,0.1,0.4,0.2,0.7,0.4c0.7,0.4,1.5,0.8,2.2,1.2c0.2,0.1,0.3,0.2,0.4,0.3
			c0.8,0.5,1.5,0.9,2.2,1.4c0.1,0.1,0.3,0.2,0.4,0.3c0.5,0.3,1,0.7,1.5,1l-8.1,16.1c-1.1,2.2-3.2,3.5-5.6,3.5c-3.2,0-4.8-2.1-5.4-3
			C209.2,428.1,208.1,425.7,209.5,422.9z M224,391.2c-0.3-0.1-0.6-0.2-0.9-0.4c-0.6-0.3-1.2-0.5-1.9-0.8c-0.5-0.2-1.1-0.4-1.6-0.6
			c-0.8-0.3-1.6-0.6-2.4-0.9c-0.2-0.1-0.4-0.2-0.7-0.2c-0.1,0-0.2-0.1-0.3-0.1c-2.7-0.9-5.5-1.7-8.3-2.3V336h16V391.2z M426.3,459.8
			c-0.9,11.3-10.6,20.2-21.9,20.2H268.3c2.4-4.3,3.7-9.3,3.7-14.6c0-24.2-10.7-46-27.5-60.9c-0.1-0.1-0.2-0.2-0.3-0.3
			c-0.5-0.5-1.1-0.9-1.6-1.3c-0.1-0.1-0.3-0.2-0.4-0.3c-0.7-0.6-1.4-1.2-2.2-1.7V328c0-4.4-3.6-8-8-8h-32c-4.4,0-8,3.6-8,8v56
			c-0.5,0-0.9,0-1.4,0H184h-24v-56c0-4.4-3.6-8-8-8h-32c-4.4,0-8,3.6-8,8v56H97.4c-1.1,0-2.3,0-3.5,0.1c-0.5,0-1,0-1.5,0.1
			c-0.6,0-1.1,0.1-1.7,0.1c-1.2,0.1-2.5,0.2-3.7,0.4c-0.2,0-0.3,0-0.5,0.1c0,0,0,0-0.1,0c-2.4,0.3-4.7,0.7-7,1.3l-6.8-82h366.6
			L426.3,459.8z M464,288h-16H64H48c-4.4,0-8-3.6-8-8s3.6-8,8-8h61.7c0,0,0,0,0,0c0,0,0,0,0,0h95.9c0,0,0.1,0,0.1,0h100.6
			c0,0,0,0,0,0c0,0,0,0,0,0H464c4.4,0,8,3.6,8,8S468.4,288,464,288z"/><path d="M280 432h32c4.4 0 8-3.6 8-8v-96c0-4.4-3.6-8-8-8h-32c-4.4 0-8 3.6-8 8v96C272 428.4 275.6 432 280 432zM288 336h16v80h-16V336zM360 432h32c4.4 0 8-3.6 8-8v-96c0-4.4-3.6-8-8-8h-32c-4.4 0-8 3.6-8 8v96C352 428.4 355.6 432 360 432zM368 336h16v80h-16V336zM240 152h32c4.4 0 8-3.6 8-8s-3.6-8-8-8h-32c-4.4 0-8 3.6-8 8S235.6 152 240 152zM232 192h48c4.4 0 8-3.6 8-8s-3.6-8-8-8h-48c-4.4 0-8 3.6-8 8S227.6 192 232 192zM232 232h48c4.4 0 8-3.6 8-8s-3.6-8-8-8h-48c-4.4 0-8 3.6-8 8S227.6 232 232 232zM360 160c4.4 0 8-3.6 8-8s-3.6-8-8-8h0c-4.4 0-8 3.6-8 8S355.6 160 360 160zM360 192c4.4 0 8-3.6 8-8s-3.6-8-8-8h0c-4.4 0-8 3.6-8 8S355.6 192 360 192zM384 216c4.4 0 8-3.6 8-8s-3.6-8-8-8h0c-4.4 0-8 3.6-8 8S379.6 216 384 216zM408 232c4.4 0 8-3.6 8-8s-3.6-8-8-8h0c-4.4 0-8 3.6-8 8S403.6 232 408 232zM352 224c4.4 0 8-3.6 8-8s-3.6-8-8-8h0c-4.4 0-8 3.6-8 8S347.6 224 352 224zM368 232c-4.4 0-8 3.6-8 8s3.6 8 8 8c4.4 0 8-3.6 8-8S372.4 232 368 232L368 232zM392 184c4.4 0 8-3.6 8-8s-3.6-8-8-8h0c-4.4 0-8 3.6-8 8S387.6 184 392 184zM424 200c4.4 0 8-3.6 8-8s-3.6-8-8-8h0c-4.4 0-8 3.6-8 8S419.6 200 424 200zM456 200c4.4 0 8-3.6 8-8s-3.6-8-8-8h0c-4.4 0-8 3.6-8 8S451.6 200 456 200zM392 152c4.4 0 8-3.6 8-8s-3.6-8-8-8h0c-4.4 0-8 3.6-8 8S387.6 152 392 152zM360 128c4.4 0 8-3.6 8-8s-3.6-8-8-8h0c-4.4 0-8 3.6-8 8S355.6 128 360 128zM424 168c4.4 0 8-3.6 8-8s-3.6-8-8-8h0c-4.4 0-8 3.6-8 8S419.6 168 424 168z"/></g></svg>