<svg xmlns="http://www.w3.org/2000/svg" viewBox="0 0 64 64"><path fill="none" stroke="#000" stroke-linecap="round" stroke-linejoin="round" stroke-width="2" d="M34.15,25.47c3.1-3.11,12.46-7.41,15.58-4.29s-1.18,12.5-4.28,15.6a8,8,0,0,1-11.3-11.31Z"/><path fill="none" stroke="#000" stroke-linecap="round" stroke-linejoin="round" stroke-width="2" d="M51.14 22.6l4.6-4.6a2.5 2.5 0 1 0 1.4-4.23 2.49 2.49 0 1 0-4.23 1.4l-4.59 4.6M48.91 18.18a15.53 15.53 0 0 0-6.74-2.13A15.93 15.93 0 0 0 30 20.37a25 25 0 0 1-13.9 6.72l-.28 0A10.5 10.5 0 0 0 8.83 43.48"/><path fill="none" stroke="#000" stroke-linecap="round" stroke-linejoin="round" stroke-width="2" d="M52.39 43.13a15.89 15.89 0 0 0 .68-21.46l-.33-.38M46.16 16.58L49.74 13a2.46 2.46 0 0 0 2.46.61M54 11a2.41 2.41 0 0 0-.7-1.55 2.49 2.49 0 0 0-2.13-.7 2.49 2.49 0 1 0-4.23 1.4l-5.63 5.64"/><circle cx="18.94" cy="31" r="1"/><circle cx="18.94" cy="38" r="1"/><circle cx="14.94" cy="35" r="1"/><path fill="none" stroke="#000" stroke-linecap="round" stroke-linejoin="round" stroke-width="2" d="M8 50l2.84 5a4 4 0 0 0 3.47 2H47.64a4 4 0 0 0 3.47-2L54 50M7 45.63l1.75-1.75a6 6 0 0 1 8.48 0L19 45.63M19 45.63l1.75-1.75a6 6 0 0 1 8.48 0L31 45.63M31 45.63l1.75-1.75a6 6 0 0 1 8.48 0L43 45.63M43 45.63l1.75-1.75a6 6 0 0 1 8.48 0L55 45.63M57 50H5a2 2 0 0 1-2-2H3a2 2 0 0 1 2-2H57a2 2 0 0 1 2 2h0A2 2 0 0 1 57 50zM16 5L14.67 6.66A3.11 3.11 0 0 0 16 11.5h0a3.11 3.11 0 0 1 1.32 4.84L16 18M8 10L6.67 11.66A3.12 3.12 0 0 0 8 16.5H8a3.11 3.11 0 0 1 1.32 4.84L8 23"/></svg>