<svg xmlns="http://www.w3.org/2000/svg" data-name="Layer 1" viewBox="0 0 512 512"><path fill="#1e1f27" d="M496.703 288.808a51.874 51.874 0 0 0-31.767-15.055 65.087 65.087 0 0 0-60.968-60.99 34.575 34.575 0 0 0-27.508-33.545c-.314-6.705.639-18.187 9.121-27.047a34.083 34.083 0 0 1 17.635-9.577 7.5 7.5 0 0 0-3.1-14.676 49.022 49.022 0 0 0-25.37 13.88c-12.088 12.626-13.69 28.229-13.293 37.76a34.595 34.595 0 0 0-26.022 33.204 65.09 65.09 0 0 0-60.967 60.994 52.252 52.252 0 0 0-22.48 96.323l24.943 123.864A22.565 22.565 0 0 0 298.98 512h141.44a22.565 22.565 0 0 0 22.053-18.06l24.942-123.853a52.266 52.266 0 0 0 9.288-81.28Zm-127.017-95.269h.02a19.761 19.761 0 1 1-.02 0Zm78.082 297.44a7.521 7.521 0 0 1-7.348 6.022H298.98a7.52 7.52 0 0 1-7.348-6.02L268.64 376.805a52.45 52.45 0 0 0 11.01 1.196H459.75a52.448 52.448 0 0 0 11.01-1.196Zm29.44-132.309a36.781 36.781 0 0 1-17.458 4.331h-180.1a36.772 36.772 0 0 1-17.453-4.329 37.5 37.5 0 0 1-8.89-6.58 37.253 37.253 0 0 1 26.343-63.59h2.31a7.5 7.5 0 0 0 7.49-7.906c-.053-.95-.1-1.965-.1-2.964a50.05 50.05 0 0 1 49.242-49.98 34.123 34.123 0 0 0 62.216 0 50.05 50.05 0 0 1 49.242 49.98c0 1-.048 2.015-.099 2.964a7.5 7.5 0 0 0 7.489 7.905h2.31a37.258 37.258 0 0 1 17.458 70.17Zm-26.229-37.99-16.842 14.577a7.5 7.5 0 1 0 9.816 11.342l16.843-14.577a7.5 7.5 0 1 0-9.817-11.342Zm-36.983-23.727a7.5 7.5 0 0 0-13.695 6.122l9.09 20.336a7.5 7.5 0 0 0 13.695-6.122ZM205.102 479.731l-58.313-22.416a1.456 1.456 0 0 1-.896-1.37v-60.99c0-4.425-.26-8.867-.51-13.162-.522-8.96-1.016-17.423.701-25.396 2.337-10.857 9.207-15.44 19.605-22.377l2.133-1.427c44.548-29.926 73.498-75.095 79.429-123.926a7.5 7.5 0 0 0-7.446-8.404h-6.407a61.547 61.547 0 0 0-48.784-58.201c.004-.283.013-.566.013-.848a61.387 61.387 0 0 0-25.16-49.883 34.975 34.975 0 0 0 .516-5.942 34.581 34.581 0 0 0-27.517-33.927c-.313-6.705.64-18.187 9.122-27.047a34.084 34.084 0 0 1 17.635-9.577 7.5 7.5 0 0 0-3.1-14.675 49.027 49.027 0 0 0-25.37 13.88c-12.089 12.626-13.69 28.228-13.293 37.759a34.6 34.6 0 0 0-26.03 33.587c0 1.144.059 2.274.167 3.39a61.26 61.26 0 0 0-28.601 46.11 61.565 61.565 0 0 0-49.144 60.46c0 1.642.088 3.28.216 4.915H8.166a7.61 7.61 0 0 0-8.166 7.5 7.455 7.455 0 0 0 .055.904 168.814 168.814 0 0 0 26.366 71.7 177.22 177.22 0 0 0 54.723 53.21c1.127.697 2.304 1.4 3.507 2.119 9.814 5.865 16.762 10.569 16.762 17.733v102.515a1.453 1.453 0 0 1-.896 1.369l-58.314 22.418A16.7 16.7 0 0 0 48.115 512H199.19a16.7 16.7 0 0 0 5.912-32.27Zm13.296-279.468H126.56c1.138-24.695 21.297-44.43 45.92-44.43s44.781 19.735 45.92 44.43Zm-92.691-134.48a19.61 19.61 0 1 1-19.277 19.606 19.466 19.466 0 0 1 19.277-19.606Zm-29.17 37.752a34.058 34.058 0 0 0 56.898 2.164 46.51 46.51 0 0 1 16.183 35.207 60.62 60.62 0 0 0-43.335 21.4 61.248 61.248 0 0 0-48.03-28.482 46.342 46.342 0 0 1 18.283-30.289Zm-21.71 45.18a46.201 46.201 0 0 1 42.212 28.14 61.735 61.735 0 0 0-5.48 23.409H29.116a47.91 47.91 0 0 1-.264-4.916c0-25.714 20.624-46.634 45.975-46.634ZM199.19 497H48.115a1.632 1.632 0 0 1-1.571-1.683 1.685 1.685 0 0 1 1.042-1.584l58.313-22.418a16.542 16.542 0 0 0 10.514-15.37V353.43c0-16.228-13.911-24.54-24.068-30.61-1.135-.678-2.247-1.342-3.312-2a162.123 162.123 0 0 1-50.064-48.671 154.41 154.41 0 0 1-22.755-56.885h6.52l.024.002.037-.002 202.874-.001.04.002.041-.002h5.332c-7.545 41.267-33.286 79.124-71.624 104.879l-2.095 1.4c-10.976 7.324-22.325 14.896-25.943 31.697-2.146 9.967-1.57 19.86-1.011 29.427.249 4.269.484 8.301.484 12.29v60.989a16.544 16.544 0 0 0 10.513 15.37l58.312 22.417a1.687 1.687 0 0 1 1.043 1.585A1.632 1.632 0 0 1 199.19 497Zm232.358-93.619a7.498 7.498 0 0 0-9.116 5.421l-15 59a7.5 7.5 0 1 0 14.537 3.695l15-59a7.5 7.5 0 0 0-5.42-9.116Zm-67.41-72.326-16.93-14.476a7.5 7.5 0 0 0-9.748 11.4l16.93 14.476a7.5 7.5 0 1 0 9.748-11.4Zm-64.733-20.322a7.5 7.5 0 0 0-10.469 1.705l-13.015 18.077a7.5 7.5 0 1 0 12.173 8.764l13.015-18.077a7.5 7.5 0 0 0-1.704-10.47Zm114.741-51.822a7.5 7.5 0 0 0-9.497-4.725l-21.118 7.087a7.5 7.5 0 1 0 4.773 14.22l21.118-7.086a7.5 7.5 0 0 0 4.724-9.496Zm-73.135 23.72a7.501 7.501 0 0 0 2.226-14.664l-21.27-6.617a7.5 7.5 0 1 0-4.456 14.322l21.27 6.617a7.476 7.476 0 0 0 2.23.341Zm28.69 120.519a7.5 7.5 0 0 0-7.5 7.5v59a7.5 7.5 0 0 0 15 0v-59a7.5 7.5 0 0 0-7.5-7.5Zm-52.732 5.652a7.5 7.5 0 1 0-14.537 3.695l15 59a7.5 7.5 0 1 0 14.537-3.695Z"/></svg>