<svg xmlns="http://www.w3.org/2000/svg" data-name="Layer 1" viewBox="0 0 512 512"><path d="M191.65,436.33h-2.71V404.18a82.61,82.61,0,0,0-21.4-55.53l-72-79.56a21.15,21.15,0,0,0-8.77-5.8l8.29-56.22A27.61,27.61,0,0,0,70,174.5c-.64-.05-1.3-.07-2.09-.07A27.64,27.64,0,0,0,42.59,191c-.09.21-.17.43-.25.65L24.49,246.09a133.72,133.72,0,0,0-8.87,76.84l0,.16a134.64,134.64,0,0,0,55.17,86.5l4.72,3.34a27.14,27.14,0,0,1,11.51,23v.4h-.58a21.84,21.84,0,0,0-21.83,21.8V504.5a7.5,7.5,0,0,0,15,0V458.13a6.82,6.82,0,0,1,6.83-6.8H191.65a6.83,6.83,0,0,1,6.84,6.8V504.5a7.5,7.5,0,0,0,15,0V458.13A21.85,21.85,0,0,0,191.65,436.33Zm-17.71,0H102.05a42.12,42.12,0,0,0-17.86-35.65l-4.71-3.34a119.71,119.71,0,0,1-49-76.77l0-.15a118.76,118.76,0,0,1,8-68.67c.09-.21.17-.43.25-.65l17.83-54.37A12.64,12.64,0,0,1,68,189.43c.29,0,.59,0,.93,0A12.61,12.61,0,0,1,80.34,204.4l-.06.33L72,261.26a7.42,7.42,0,0,0,0,2.4,21,21,0,0,0-8.47,6.22,26.56,26.56,0,0,0-2.49,30l26.28,45.88a7.5,7.5,0,0,0,13-7.46L74.05,292.43a11.56,11.56,0,0,1,1.07-13.05,6.16,6.16,0,0,1,9.34-.23l72,79.56a67.66,67.66,0,0,1,17.52,45.47ZM487.51,246.09l-17.85-54.41c-.08-.22-.16-.44-.25-.65a27.64,27.64,0,0,0-25.36-16.6c-.79,0-1.45,0-2.05.07a27.61,27.61,0,0,0-25.1,32.57l8.29,56.22a21.15,21.15,0,0,0-8.77,5.8l-72,79.56a82.61,82.61,0,0,0-21.4,55.53v32.15h-2.71a21.85,21.85,0,0,0-21.84,21.8V504.5a7.5,7.5,0,0,0,15,0V458.13a6.83,6.83,0,0,1,6.84-6.8H425.54a6.82,6.82,0,0,1,6.83,6.8V504.5a7.5,7.5,0,0,0,15,0V458.13a21.84,21.84,0,0,0-21.83-21.8H425v-.4a27.15,27.15,0,0,1,11.52-23l4.71-3.32a134.68,134.68,0,0,0,55.17-86.51l0-.16A133.72,133.72,0,0,0,487.51,246.09Zm-5.92,74.33,0,.15a119.76,119.76,0,0,1-49,76.78l-4.7,3.32A42.13,42.13,0,0,0,410,436.33H338.06V404.18a67.66,67.66,0,0,1,17.52-45.47l72-79.56a6.16,6.16,0,0,1,9.34.23A11.56,11.56,0,0,1,438,292.43l-26.28,45.88a7.5,7.5,0,1,0,13,7.46L451,299.89a26.56,26.56,0,0,0-2.49-30,21,21,0,0,0-8.47-6.22,7.42,7.42,0,0,0,0-2.4l-8.33-56.53-.06-.33a12.61,12.61,0,0,1,11.5-14.94c.3,0,.6,0,.89,0a12.64,12.64,0,0,1,11.48,7.3l17.83,54.37c.08.22.16.44.25.65A118.76,118.76,0,0,1,481.59,320.42ZM101.25,464a9,9,0,1,0,9,9A9,9,0,0,0,101.25,464Zm309.5,0a9,9,0,1,0,9,9A9,9,0,0,0,410.75,464ZM307,278.41c2.26-3.79,5.07-8.5,7.22-9.53s7.76-.36,12.19.23c8,1.07,17,2.27,23.72-3.08s7.54-14.49,8.28-22.54c.4-4.45.91-10,2.45-11.91s6.75-3.61,11-5c7.7-2.51,16.43-5.35,20.18-13.15s.52-16.19-2.28-23.72c-1.58-4.23-3.53-9.49-3-12,.52-2.27,4.44-6,7.59-9.06,5.89-5.65,12.58-12.07,12.58-20.84s-6.68-15.19-12.58-20.84c-3.15-3-7.07-6.79-7.59-9.06-.56-2.5,1.39-7.76,3-12,2.8-7.52,6-16.06,2.28-23.73S379.5,71.58,371.8,69.07c-4.22-1.38-9.46-3.08-11-5s-2.05-7.46-2.45-11.91c-.74-8.05-1.57-17.17-8.28-22.54s-15.74-4.15-23.72-3.08c-4.43.58-9.94,1.32-12.19.23s-5-5.74-7.22-9.53c-4.17-7-8.91-14.92-17.4-16.85-8.22-1.87-15.78,3.1-22.44,7.5-3.79,2.49-8.51,5.61-11.13,5.61s-7.34-3.12-11.13-5.62C238.21,3.5,230.66-1.48,222.42.4,213.94,2.33,209.2,10.26,205,17.25c-2.26,3.79-5.07,8.5-7.22,9.53s-7.76.35-12.19-.23c-8-1.07-17-2.27-23.72,3.08s-7.54,14.49-8.28,22.54c-.4,4.45-.91,10-2.45,11.91s-6.75,3.61-11,5c-7.7,2.51-16.43,5.35-20.18,13.15s-.52,16.2,2.28,23.72c1.58,4.23,3.53,9.49,3,12-.52,2.27-4.44,6-7.59,9.06-5.89,5.65-12.58,12.07-12.58,20.84s6.69,15.19,12.58,20.84c3.15,3,7.07,6.79,7.59,9.06.56,2.5-1.39,7.76-3,12-2.8,7.53-6,16.06-2.28,23.72s12.48,10.64,20.18,13.15c4.22,1.37,9.46,3.08,11,5s2.05,7.47,2.45,11.92c.74,8,1.57,17.17,8.28,22.54s15.74,4.14,23.72,3.08c4.43-.59,9.94-1.32,12.19-.23s5,5.74,7.22,9.53c4.17,7,8.91,14.92,17.39,16.85,8.23,1.88,15.79-3.1,22.45-7.5,3.79-2.5,8.51-5.61,11.13-5.61s7.34,3.11,11.13,5.61c5.67,3.74,12,7.9,18.82,7.9a16.28,16.28,0,0,0,3.63-.4C298.06,293.33,302.8,285.4,307,278.41Zm-20.73,2.22c-2,.45-7.32-3.06-10.85-5.39-5.76-3.79-12.27-8.09-19.39-8.09s-13.63,4.3-19.38,8.09c-3.54,2.33-8.87,5.83-10.86,5.39-2.23-.51-5.62-6.17-7.85-9.92-3.63-6.07-7.38-12.34-13.57-15.34s-13.62-2.07-20.7-1.13c-4.25.57-10.68,1.42-12.37.07s-2.31-7.88-2.71-12.19c-.65-7.1-1.32-14.45-5.66-19.89s-11.3-7.7-18.05-9.9c-4.12-1.34-10.34-3.37-11.32-5.39s1.34-8,2.83-12c2.5-6.72,5.09-13.68,3.53-20.54-1.51-6.66-6.75-11.69-11.82-16.56-3.36-3.23-8-7.64-8-10s4.61-6.79,8-10c5.07-4.87,10.31-9.9,11.82-16.56,1.56-6.86-1-13.82-3.53-20.54-1.49-4-3.75-10.07-2.83-12s7.2-4,11.32-5.39c6.75-2.2,13.73-4.48,18.05-9.9s5-12.79,5.66-19.89c.4-4.31,1-10.82,2.71-12.2s8.12-.49,12.37.08c7.08.94,14.4,1.91,20.7-1.13S214.28,31,217.91,25c2.23-3.75,5.62-9.42,7.85-9.92,2-.45,7.32,3.06,10.85,5.39,5.76,3.79,12.27,8.09,19.39,8.09s13.63-4.3,19.39-8.09c3.53-2.33,8.87-5.85,10.85-5.39,2.23.5,5.62,6.17,7.85,9.92,3.63,6.07,7.38,12.34,13.57,15.34s13.62,2.07,20.7,1.13c4.25-.57,10.68-1.42,12.37-.08s2.31,7.89,2.71,12.2c.65,7.1,1.32,14.45,5.66,19.89s11.3,7.7,18,9.9c4.12,1.34,10.34,3.37,11.31,5.39s-1.33,8-2.82,12c-2.5,6.72-5.09,13.68-3.53,20.54,1.51,6.66,6.75,11.69,11.82,16.56,3.36,3.23,8,7.64,8,10s-4.61,6.79-8,10c-5.07,4.87-10.31,9.9-11.82,16.56-1.56,6.86,1,13.82,3.53,20.54,1.49,4,3.75,10.07,2.83,12s-7.2,4.05-11.32,5.39c-6.75,2.2-13.73,4.48-18,9.9s-5,12.79-5.66,19.89c-.4,4.31-1,10.82-2.71,12.2s-8.12.49-12.37-.07c-7.08-.95-14.4-1.92-20.7,1.12s-9.94,9.27-13.57,15.34C291.86,274.46,288.47,280.12,286.24,280.63Zm68-132.8A98.27,98.27,0,1,0,256,246.1,98.39,98.39,0,0,0,354.27,147.83ZM256,231.1a83.27,83.27,0,1,1,83.27-83.27A83.37,83.37,0,0,1,256,231.1Zm-13.53-96.8a22.37,22.37,0,1,0-15.8,6.53A22.36,22.36,0,0,0,242.47,134.3Zm-21-10.61a7.33,7.33,0,1,1,10.37,0A7.34,7.34,0,0,1,221.49,123.69Zm71.61-12.3a7.49,7.49,0,0,0-10.6,0l-62.94,62.94a7.5,7.5,0,1,0,10.61,10.6L293.1,122A7.5,7.5,0,0,0,293.1,111.39Zm-23.57,50a22.34,22.34,0,1,0,31.59,0A22.36,22.36,0,0,0,269.53,161.36Zm21,21a7.34,7.34,0,1,1,0-10.37A7.34,7.34,0,0,1,290.51,182.34Z"/></svg>